SplineFontDB: 3.2
FontName: SingScript.sg_misctech
FullName: SingScript.sg "misctech" module
FamilyName: SingScript.sg
Weight: Regular
Copyright: Copyright (c) 2025, 05524F.sg (Singapore)
Version: v2
ItalicAngle: 0
UnderlinePosition: -100
UnderlineWidth: 67
Ascent: 600
Descent: 300
InvalidEm: 0
sfntRevision: 0x00010000
LayerCount: 2
Layer: 0 0 "Back" 1
Layer: 1 0 "Fore" 0
XUID: [1021 768 647112374 32286]
StyleMap: 0x0040
FSType: 0
OS2Version: 4
OS2_WeightWidthSlopeOnly: 0
OS2_UseTypoMetrics: 1
CreationTime: 1740441635
ModificationTime: 1753838964
PfmFamily: 65
TTFWeight: 400
TTFWidth: 5
LineGap: 81
VLineGap: 0
Panose: 3 0 5 3 0 0 0 0 0 0
OS2TypoAscent: 600
OS2TypoAOffset: 0
OS2TypoDescent: -300
OS2TypoDOffset: 0
OS2TypoLinegap: 81
OS2WinAscent: 590
OS2WinAOffset: 0
OS2WinDescent: 233
OS2WinDOffset: 0
HheadAscent: 590
HheadAOffset: 0
HheadDescent: -233
HheadDOffset: 0
OS2SubXSize: 585
OS2SubYSize: 630
OS2SubXOff: 0
OS2SubYOff: 126
OS2SupXSize: 585
OS2SupYSize: 630
OS2SupXOff: 0
OS2SupYOff: 432
OS2StrikeYSize: 44
OS2StrikeYPos: 232
OS2CapHeight: 467
OS2XHeight: 300
OS2Vendor: '5524'
OS2CodePages: 00000001.00000000
OS2UnicodeRanges: 80000003.10000000.00000000.00000000
MarkAttachClasses: 1
DEI: 91125
LangName: 1033 "" "" "" "" "" "Version v2"
Encoding: Custom
UnicodeInterp: none
NameList: AGL For New Fonts
DisplaySize: -48
AntiAlias: 1
FitToEm: 0
WidthSeparation: 50
WinInfo: 0 27 4
BeginPrivate: 6
BlueValues 21 [0 0 300 300 467 467]
OtherBlues 11 [-233 -233]
StdHW 4 [67]
StdVW 4 [67]
StemSnapH 33 [52 59 63 67 73 78 86 93 159 167]
StemSnapV 4 [67]
EndPrivate
Grid
0 -50 m 28
 351 -50 549 -50 900 -50 c 1052
0 -83 m 28
 351 -83 549 -83 900 -83 c 1052
0 349 m 28
 349 349 549 349 900 349 c 1052
0 383 m 28
 350 383 549 383 900 383 c 1052
0 -200 m 28
 351 -200 549 -200 900 -200 c 1052
0 -233 m 28
 351 -233 549 -233 900 -233 c 1052
250 211 m 28
 289 211 311 211 350 211 c 1052
250 100 m 28
 289 100 311 100 350 100 c 1052
250 -100 m 28
 289 -100 311 -100 350 -100 c 1052

StartChar: uni2300
Encoding: 0 8960 0
Width: 360
Flags: W
HStem: -34 67<171.476 233.84>
VStem: 25 67<105.565 249.11> 42 65<-128.515 -64.3412> 268 67<73.2667 235.312>
LayerCount: 2
Fore
SplineSet
42 -98 m 0xb0
 42 -88 59 -50 73 -20 c 0
 80 -4 86 9 89 17 c 1
 49 61 25 129 25 198 c 0xd0
 25 287 71 326 182 333 c 0
 183 334 l 0
 184 334 l 2
 200 334 l 2
 203 334 203 334 226 332 c 2
 227 332 l 1
 276 446 276 446 298 446 c 0
 316 446 332 430 332 412 c 0
 332 405 332 405 289 306 c 1
 320 280 335 236 335 171 c 0
 335 48 278 -34 193 -34 c 0
 174 -34 159 -31 145 -23 c 1
 144 -26 140 -36 134 -48 c 0
 125 -67 114 -93 107 -111 c 0
 103 -123 89 -132 76 -132 c 0
 58 -132 42 -116 42 -98 c 0xb0
259 236 m 1
 259 235 237 186 215 137 c 0
 193 88 171 39 171 38 c 0
 178 35 186 33 193 33 c 0
 238 33 268 88 268 171 c 0
 268 198 265 219 259 236 c 1
198 267 m 1
 119 267 92 250 92 198 c 0
 92 161 103 117 120 88 c 1
 141 136 161 182 179 224 c 0
 185 239 192 253 198 267 c 1
EndSplineSet
Validated: 1
EndChar

StartChar: uni2301
Encoding: 1 8961 1
Width: 363
VWidth: 0
Flags: W
HStem: 60 166<166.232 200.485>
LayerCount: 2
Fore
SplineSet
220 148 m 1
 213 84 197 60 161 60 c 0
 139 60 124 69 83 104 c 0
 62 122 51 131 40 138 c 0
 40 143 36 147 32 152 c 0
 28 157 25 161 25 166 c 0
 25 184 40 200 58 200 c 0
 71 200 84 192 127 155 c 0
 139 145 146 139 151 135 c 1
 152 139 152 144 153 153 c 0
 158 206 171 226 201 226 c 0
 224 226 282 192 326 154 c 0
 333 148 338 139 338 129 c 0
 338 111 323 95 305 95 c 0
 293 95 285 102 272 112 c 0
 261 121 246 134 220 148 c 1
EndSplineSet
Validated: 1
EndChar

StartChar: house
Encoding: 2 8962 2
Width: 332
VWidth: 0
Flags: W
HStem: -0 67<93.215 222> 446 20G<182.5 195.5>
VStem: 25 67<68 251.552> 222 67<67 263.68> 240 67<68.5534 303.523>
LayerCount: 2
Fore
SplineSet
289 58 m 0xf0
 289 56 290 51 290 47 c 0
 290 43 290 39 290 37 c 0
 290 22 280 9 265 4 c 0
 255 1 229 0 172 -0 c 0
 107 0 62 1 51 4 c 0
 35 8 25 21 25 37 c 0
 25 126 30 251 34 280 c 0
 36 296 39 301 62 334 c 0
 103 391 153 451 166 460 c 0
 172 464 179 466 186 466 c 0
 205 466 220 451 220 432 c 0
 220 431 220 432 220 431 c 0
 225 414 247 383 267 354 c 0
 281 333 295 313 301 302 c 0
 306 292 307 284 307 265 c 0xe8
 307 237 302 199 298 161 c 0
 294 123 289 86 289 58 c 0xf0
172 67 m 0
 189 67 207 67 222 67 c 1xf0
 223 100 228 142 232 179 c 0
 236 213 240 245 240 265 c 0
 240 268 240 271 240 274 c 0
 235 283 225 297 214 313 c 0
 201 331 187 352 175 371 c 1
 145 334 112 289 100 270 c 1
 97 244 93 155 92 68 c 1
 119 67 149 67 172 67 c 0
EndSplineSet
Validated: 1
EndChar

StartChar: uni2303
Encoding: 3 8963 3
Width: 311
VWidth: 0
Flags: W
HStem: 132 168<220.25 222>
VStem: 25 261<148 174>
LayerCount: 2
Fore
SplineSet
58 132 m 0
 40 132 25 148 25 166 c 0
 25 176 29 185 36 191 c 0
 49 203 62 218 75 232 c 0
 90 249 106 266 123 279 c 0
 142 294 158 300 176 300 c 0
 219 300 232 269 247 237 c 0
 255 219 263 201 276 188 c 0
 282 182 286 174 286 165 c 0
 286 147 271 132 253 132 c 0
 231 132 210 156 186 211 c 0
 180 224 178 230 175 233 c 1
 165 230 147 211 127 189 c 0
 112 173 96 155 81 141 c 0
 75 136 66 132 58 132 c 0
EndSplineSet
Validated: 1
EndChar

StartChar: uni2304
Encoding: 4 8964 4
Width: 291
VWidth: 0
Flags: W
HStem: -0 175
VStem: 25 241<138 154>
LayerCount: 2
Fore
SplineSet
140 -0 m 0
 109 0 89 36 69 70 c 0
 58 89 48 107 36 118 c 0
 36 122 33 126 30 130 c 0
 27 134 25 138 25 142 c 0
 25 160 40 175 58 175 c 0
 79 175 93 160 129 99 c 0
 134 90 137 86 140 81 c 1
 190 152 208 170 232 170 c 0
 250 170 266 154 266 136 c 0
 266 124 259 113 249 107 c 0
 233 98 220 77 206 57 c 0
 187 28 167 0 140 -0 c 0
EndSplineSet
Validated: 1
EndChar

StartChar: uni2305
Encoding: 5 8965 5
Width: 306
VWidth: 0
Flags: W
HStem: -0 20G<49 60.5 241 256> 227 67<44.2926 231.839> 234 67<74.1607 261.707>
VStem: 25 256<15 49>
LayerCount: 2
Fore
SplineSet
150 162 m 0x90
 194 162 281 76 281 33 c 0
 281 15 265 -1 247 -1 c 0
 235 -1 224 6 218 17 c 0
 199 52 174 81 155 92 c 1
 131 72 103 40 87 15 c 0
 82 15 78 11 73 7 c 0
 68 3 63 0 58 -0 c 0
 40 0 25 15 25 33 c 0
 25 49 52 86 93 126 c 0
 120 153 134 162 150 162 c 0x90
74 227 m 0xd0
 56 227 41 243 41 261 c 0
 41 279 54 293 72 294 c 0xd0
 73 294 231 301 232 301 c 0
 250 301 265 285 265 267 c 0
 265 249 252 235 234 234 c 0xb0
 233 234 75 227 74 227 c 0xd0
EndSplineSet
Validated: 1
EndChar

StartChar: uni2306
Encoding: 6 8966 6
Width: 306
VWidth: 0
Flags: W
HStem: -1 21G<241 256> 179 67<45.5645 259.378> 276 67<43.5645 257.378>
VStem: 25 256<15 49>
LayerCount: 2
Fore
SplineSet
74 276 m 0
 56 276 40 292 40 310 c 0
 40 328 53 342 71 343 c 0
 72 343 230 349 231 349 c 0
 249 349 264 334 264 316 c 0
 264 298 251 283 233 282 c 0
 232 282 75 276 74 276 c 0
150 162 m 0
 194 162 281 76 281 33 c 0
 281 15 265 -1 247 -1 c 0
 235 -1 224 6 218 17 c 0
 199 52 174 81 155 92 c 1
 131 72 103 40 87 15 c 0
 82 15 78 11 73 7 c 0
 68 3 63 0 58 -0 c 0
 40 0 25 15 25 33 c 0
 25 49 52 86 93 126 c 0
 120 153 134 162 150 162 c 0
76 179 m 0
 58 179 42 195 42 213 c 0
 42 231 55 245 73 246 c 0
 74 246 232 252 233 252 c 0
 251 252 266 237 266 219 c 0
 266 201 253 186 235 185 c 0
 234 185 77 179 76 179 c 0
EndSplineSet
Validated: 1
EndChar

StartChar: uni2307
Encoding: 7 8967 7
Width: 212
VWidth: 0
Flags: W
VStem: 105 67<252.56 291.09>
LayerCount: 2
Fore
SplineSet
95 49 m 1
 96 40 112 28 130 14 c 0
 156 -5 186 -27 186 -50 c 0
 186 -68 170 -83 152 -83 c 0
 142 -83 133 -79 127 -71 c 0
 118 -60 104 -50 90 -40 c 0
 78 -31 65 -22 55 -11 c 0
 37 7 28 28 28 50 c 0
 28 84 47 104 99 124 c 0
 105 126 111 129 116 131 c 1
 111 134 106 137 100 139 c 0
 90 143 80 148 70 156 c 0
 56 167 48 183 48 200 c 0
 48 229 70 243 86 253 c 0
 93 257 98 261 101 265 c 0
 104 269 105 273 105 280 c 1
 100 284 93 288 85 292 c 0
 70 300 51 309 34 326 c 0
 28 332 25 340 25 349 c 0
 25 367 40 383 58 383 c 0
 67 383 77 379 83 372 c 0
 90 365 98 360 116 351 c 0
 157 330 172 311 172 280 c 0
 172 245 158 219 128 200 c 1
 169 182 187 160 187 127 c 0
 187 110 178 93 163 82 c 0
 150 72 135 66 122 61 c 0
 111 57 101 54 95 49 c 1
EndSplineSet
Validated: 1
EndChar

StartChar: uni2308
Encoding: 8 8968 8
Width: 238
VWidth: 0
Flags: W
HStem: -0 21G<51 69> 399 68<104 206.988>
VStem: 25 67<4.02832 334.47> 37 176<399.417 458.707> 37 67<122.128 399>
LayerCount: 2
Fore
SplineSet
37 429 m 0xd0
 37 453 55 467 89 467 c 0
 102 467 118 466 134 465 c 0
 150 464 166 462 179 462 c 0
 197 462 213 447 213 429 c 0xd0
 213 411 197 396 179 396 c 0
 160 396 114 398 105 399 c 0
 104 399 104 399 104 399 c 1xc8
 103 356 100 320 98 282 c 0
 95 235 92 186 92 119 c 0
 92 107 93 92 93 76 c 0
 93 60 94 45 94 33 c 0
 94 15 78 0 60 -0 c 0
 42 0 28 14 27 32 c 0
 26 63 25 91 25 119 c 0xe0
 25 177 28 223 31 269 c 0
 34 315 37 360 37 418 c 0
 37 420 37 422 37 424 c 0
 37 426 37 427 37 429 c 0xd0
EndSplineSet
Validated: 1
EndChar

StartChar: uni2309
Encoding: 9 8969 9
Width: 240
VWidth: 0
Flags: W
HStem: -0 21G<137 155> 376 90<55.4898 124.684>
VStem: 112 67<3.44001 246.209> 147 68<224.454 398>
LayerCount: 2
Fore
SplineSet
147 398 m 1xd0
 98 394 84 387 75 382 c 0
 70 379 66 376 58 376 c 0
 40 376 25 392 25 410 c 0
 25 445 85 466 181 466 c 0
 206 466 215 452 215 411 c 0xd0
 215 366 208 321 201 267 c 0
 193 205 183 131 179 32 c 0
 178 14 164 0 146 -0 c 0
 128 0 112 15 112 33 c 0xe0
 112 90 123 181 133 261 c 0
 140 319 146 370 147 398 c 1xd0
EndSplineSet
Validated: 1
EndChar

StartChar: uni230A
Encoding: 10 8970 10
Width: 247
VWidth: 0
Flags: W
HStem: -1 21G<50 59.5> 5 69<97.2158 218.233> 447 20G<57 73.5>
VStem: 48 67<86.8599 435.474>
LayerCount: 2
Fore
SplineSet
188 5 m 0x70
 182 5 179 6 175 6 c 0
 171 6 168 7 162 7 c 0
 139 7 98 4 63 -0 c 2
 62 -0 60 -1 59 -1 c 0xb0
 41 -1 25 14 25 33 c 0
 25 65 31 114 37 163 c 0
 43 212 48 262 48 294 c 0
 48 314 45 338 41 363 c 0
 37 388 33 413 33 433 c 0
 33 451 48 467 66 467 c 0
 81 467 95 456 99 441 c 0
 110 396 115 348 115 294 c 0
 115 239 115 239 96 71 c 1
 122 73 144 74 162 74 c 0
 205 74 222 64 222 39 c 0
 222 21 206 5 188 5 c 0x70
EndSplineSet
Validated: 1
EndChar

StartChar: uni230B
Encoding: 11 8971 11
Width: 260
VWidth: 0
Flags: W
HStem: -0 67<60.6102 154.614> 446 20G<192 210>
VStem: 168 67<105.767 462.707>
LayerCount: 2
Fore
SplineSet
132 -0 m 0
 60 0 25 16 25 48 c 0
 25 66 41 82 59 82 c 0
 68 82 76 78 82 72 c 0
 94 69 112 67 132 67 c 0
 139 67 147 67 154 68 c 1
 164 128 168 214 168 321 c 0
 168 336 168 356 168 377 c 0
 168 398 167 418 167 433 c 0
 167 451 183 466 201 466 c 0
 219 466 234 452 234 434 c 0
 235 393 235 356 235 321 c 0
 235 194 229 102 216 36 c 0
 211 10 187 0 132 -0 c 0
EndSplineSet
Validated: 1
EndChar

StartChar: uni230C
Encoding: 12 8972 12
Width: 900
VWidth: 0
Flags: W
HStem: -66 67<667 896.515>
VStem: 600 67<-296.515 -66>
LayerCount: 2
Fore
SplineSet
600 -32 m 2
 600 -14 615 1 634 1 c 2
 866 2 l 2
 884 2 900 -14 900 -32 c 0
 900 -50 884 -66 866 -66 c 2
 667 -66 l 1
 667 -266 l 2
 667 -284 652 -300 634 -300 c 0
 616 -300 600 -284 600 -266 c 2
 600 -32 l 2
EndSplineSet
Validated: 1
EndChar

StartChar: uni230D
Encoding: 13 8973 13
Width: 900
VWidth: 0
Flags: W
HStem: -66 68<3.48541 233>
VStem: 233 67<-296.515 -66>
LayerCount: 2
Fore
SplineSet
266 2 m 2
 285 2 300 -13 300 -32 c 2
 300 -266 l 2
 300 -284 284 -300 266 -300 c 0
 248 -300 233 -284 233 -266 c 2
 233 -66 l 1
 34 -66 l 2
 16 -66 0 -50 0 -32 c 0
 0 -14 16 2 34 2 c 2
 266 2 l 2
EndSplineSet
Validated: 1
EndChar

StartChar: uni230E
Encoding: 14 8974 14
Width: 900
VWidth: 0
Flags: W
HStem: 299 67<667 896.515>
VStem: 600 67<366 596.515>
LayerCount: 2
Fore
SplineSet
634 299 m 2
 616 299 600 314 600 332 c 2
 600 566 l 2
 600 584 616 600 634 600 c 0
 652 600 667 584 667 566 c 2
 667 366 l 1
 866 366 l 2
 884 366 900 350 900 332 c 0
 900 314 884 298 866 298 c 2
 634 299 l 2
EndSplineSet
Validated: 1
EndChar

StartChar: uni230F
Encoding: 15 8975 15
Width: 900
VWidth: 0
Flags: W
HStem: 298 68<3.48541 233>
VStem: 233 67<366 596.515>
LayerCount: 2
Fore
SplineSet
300 332 m 2
 300 314 284 299 266 299 c 2
 34 298 l 2
 16 298 0 314 0 332 c 0
 0 350 16 366 34 366 c 2
 233 366 l 1
 233 566 l 2
 233 584 248 600 266 600 c 0
 284 600 300 584 300 566 c 2
 300 332 l 2
EndSplineSet
Validated: 1
EndChar

StartChar: revlogicalnot
Encoding: 16 8976 16
Width: 342
Flags: W
HStem: 159 68<94.2781 312.327>
VStem: 25 69<73.6953 150 151 159>
LayerCount: 2
Fore
SplineSet
25 172 m 0
 25 219 40 227 132 227 c 0
 145 227 154 227 170 226 c 0
 183 226 200 226 223 225 c 0
 236 225 250 224 267 224 c 2
 283 224 l 2
 301 224 317 209 317 191 c 0
 317 173 301 157 283 157 c 2
 267 157 l 2
 250 157 236 158 223 158 c 0
 200 159 183 159 170 159 c 0
 154 160 145 160 132 160 c 2
 116 160 l 2
 115 160 114 160 113 160 c 0
 112 160 111 159 110 159 c 2
 93 159 l 1
 93 151 l 2
 94 150 l 0
 94 148 l 2
 94 142 l 2
 94 129 95 126 96 122 c 0
 97 118 97 114 97 101 c 0
 97 83 81 68 63 68 c 0
 45 68 29 83 29 101 c 0
 29 118 28 127 27 136 c 0
 26 145 25 155 25 172 c 0
EndSplineSet
Validated: 1
EndChar

StartChar: uni2311
Encoding: 17 8977 17
Width: 401
VWidth: 0
Flags: W
HStem: 37 67<148.037 250.485> 195 67<150.982 252.831>
VStem: 87 69<100.087 202.139> 246 68<96.9775 199.018>
LayerCount: 2
Fore
SplineSet
83 314 m 0
 118 280 160 262 201 262 c 0
 242 262 283 280 317 314 c 1
 318 314 l 1
 317 315 l 1
 323 321 332 325 341 325 c 0
 350 325 359 321 365 315 c 0
 372 308 376 300 376 291 c 0
 376 282 372 274 365 267 c 0
 331 232 314 190 314 149 c 0
 314 108 331 66 365 32 c 0
 371 26 375 17 375 8 c 0
 375 -1 371 -10 365 -16 c 0
 359 -22 351 -25 343 -25 c 0
 334 -25 325 -22 318 -15 c 0
 284 19 242 37 201 37 c 0
 159 37 117 19 82 -16 c 0
 75 -23 67 -26 60 -26 c 0
 42 -26 25 -8 25 10 c 0
 25 17 27 25 34 32 c 0
 69 67 87 109 87 151 c 0
 87 192 70 232 36 266 c 1
 36 267 l 1
 29 274 26 282 26 291 c 0
 26 299 29 308 35 314 c 0
 41 320 50 324 59 324 c 0
 68 324 77 320 83 314 c 0
150 203 m 1
 154 188 156 172 156 157 c 0
 156 138 153 118 147 99 c 1
 162 103 178 104 193 104 c 0
 212 104 232 102 251 96 c 1
 247 111 246 127 246 142 c 0
 246 161 248 181 254 200 c 1
 239 196 223 195 208 195 c 0
 189 195 169 197 150 203 c 1
EndSplineSet
Validated: 1
EndChar

StartChar: uni2312
Encoding: 18 8978 18
Width: 449
VWidth: 0
Flags: W
HStem: -0 21G<49.5 68 382 400> 234 66<179.21 288.704>
VStem: 25 67<3.16653 123.57> 357 67<3.2926 142.66>
LayerCount: 2
Fore
SplineSet
357 33 m 0
 357 147 305 234 235 234 c 0
 163 234 92 136 92 35 c 0
 92 34 l 0
 92 33 l 0
 92 15 77 0 59 -0 c 0
 40 0 25 14 25 35 c 0
 25 175 124 300 235 300 c 0
 344 300 424 187 424 33 c 0
 424 15 409 0 391 -0 c 0
 373 0 357 15 357 33 c 0
EndSplineSet
Validated: 1
EndChar

StartChar: uni2313
Encoding: 19 8979 19
Width: 449
VWidth: 0
Flags: W
HStem: -0 66<95 355> 234 66<178.11 288.453>
LayerCount: 2
Fore
SplineSet
235 300 m 0
 344 300 424 187 424 33 c 0
 424 15 409 0 391 -0 c 0
 390 0 389 -0 389 -0 c 0
 389 -0 389 0 388 -0 c 2
 61 -0 l 2
 60 -0 l 0
 59 -0 l 0
 40 0 25 14 25 35 c 0
 25 175 124 300 235 300 c 0
355 66 m 1
 344 168 298 234 235 234 c 0
 170 234 111 162 95 66 c 1
 355 66 l 1
EndSplineSet
Validated: 1
EndChar

StartChar: uni2314
Encoding: 20 8980 20
Width: 321
VWidth: 0
Flags: W
HStem: -0 21G<155.5 179.5> 234 66<115.756 216.295>
VStem: 25 271<165 167>
LayerCount: 2
Fore
SplineSet
43 130 m 0
 43 136 38 141 34 147 c 0
 30 153 25 158 25 164 c 0
 25 167 25 169 26 172 c 0
 48 262 90 300 169 300 c 0
 247 300 289 258 296 173 c 1
 296 172 296 171 296 170 c 0
 296 165 292 160 288 155 c 0
 284 150 281 146 281 141 c 0
 249 113 232 79 218 52 c 0
 203 22 192 -0 167 -0 c 0
 144 0 132 20 117 46 c 0
 101 73 82 106 43 130 c 0
227 183 m 1
 221 222 208 234 169 234 c 0
 127 234 110 220 96 174 c 1
 122 154 144 130 165 97 c 1
 184 133 204 160 227 183 c 1
EndSplineSet
Validated: 1
EndChar

StartChar: uni2315
Encoding: 21 8981 21
Width: 386
VWidth: 0
Flags: W
HStem: -0 66<168.484 253.092> 234 66<134.922 276.641>
VStem: 56 67<118.492 221.147> 294 67<109.008 216.718>
LayerCount: 2
Fore
SplineSet
212 66 m 0
 247 66 294 120 294 160 c 0
 294 213 271 234 212 234 c 0
 180 234 153 229 139 221 c 0
 127 215 123 206 123 190 c 0
 123 129 168 66 212 66 c 0
25 -50 m 0
 25 -32 49 1 103 57 c 1
 74 93 56 145 56 190 c 0
 56 263 109 300 212 300 c 0
 308 300 361 250 361 160 c 0
 361 82 285 0 212 -0 c 0
 193 0 173 5 155 14 c 1
 111 -32 105 -39 87 -68 c 0
 81 -78 70 -84 58 -84 c 0
 40 -84 25 -68 25 -50 c 0
EndSplineSet
Validated: 1
EndChar

StartChar: uni2316
Encoding: 22 8982 22
Width: 536
VWidth: 0
Flags: W
HStem: 128 67<393 506.972>
VStem: 124 67<179 224.352> 217 67<-80.5146 8.17267 98 115> 225 67<189 230.342> 230 70<189.84 231 297.114 377.897>
LayerCount: 2
Fore
SplineSet
217 -50 m 0xe0
 217 -50 217 -47 217 -43 c 0xe0
 217 -32 218 -11 219 10 c 1
 189 28 159 65 141 105 c 0
 141 105 140 105 139 105 c 0
 126 103 61 94 59 94 c 0
 41 94 25 110 25 128 c 0
 25 145 37 159 54 161 c 0
 84 165 106 168 125 170 c 1
 125 175 124 180 124 185 c 0
 124 250 163 293 230 300 c 1
 231 319 232 337 233 352 c 0
 234 369 250 383 267 383 c 0
 285 383 300 367 300 349 c 0
 300 349 300 348 300 345 c 0xc8
 299 337 298 317 297 299 c 1
 360 293 390 261 395 195 c 0
 420 196 459 196 478 196 c 0
 496 196 511 181 511 163 c 0
 511 145 496 130 478 130 c 0
 448 130 420 129 393 128 c 1
 382 62 342 15 286 3 c 1
 285 -16 285 -35 284 -52 c 0
 283 -70 269 -84 251 -84 c 0
 233 -84 217 -68 217 -50 c 0xe0
212 114 m 1
 215 109 218 103 222 98 c 1
 222 102 223 107 223 115 c 1
 219 115 215 114 212 114 c 1
323 124 m 1
 312 123 301 122 290 121 c 1
 289 101 289 87 289 74 c 1
 305 83 316 100 323 124 c 1
227 231 m 1
 201 226 191 213 191 185 c 0
 191 183 191 181 191 179 c 1
 203 180 214 181 225 182 c 1xd0
 226 201 226 217 227 231 c 1
328 191 m 1
 325 222 320 229 294 232 c 1
 294 219 293 205 292 189 c 1
 304 190 316 190 328 191 c 1
EndSplineSet
Validated: 1
EndChar

StartChar: uni2317
Encoding: 23 8983 23
Width: 442
Flags: W
HStem: 0 21G<144 162> 115 67<28.4854 121.252> 270 67<37.1032 127> 273 68<196 237 306 309> 284 66<307.461 380 381 411.876> 447 20G<157 175 267 285>
VStem: 120 66<3.12434 121> 133 63<227.575 270 341 464.05> 228 67<18.44 130>
LayerCount: 2
Fore
SplineSet
192 194 m 1xd480
 234 198 l 1
 237 276 l 1
 233 276 230 275 226 275 c 0
 219 275 212 274 201 273 c 2
 194 273 l 1
 192 194 l 1xd480
64 333 m 0
 67 333 81 334 96 335 c 0
 111 336 126 337 129 337 c 1xe680
 133 435 l 2
 134 453 148 467 166 467 c 0
 184 467 200 452 200 434 c 0
 199 433 199 433 196 352 c 0
 196 348 196 345 196 341 c 1xd580
 199 341 199 341 239 343 c 1
 243 435 l 2
 244 453 258 467 276 467 c 0
 294 467 310 452 310 434 c 2
 310 433 l 2
 310 432 310 432 306 346 c 1
 309 346 l 1
 379 350 l 1
 380 350 l 1
 381 351 l 1
 399 351 415 335 415 317 c 0
 415 299 401 285 383 284 c 0xcd80
 379 284 379 284 304 279 c 1
 301 204 l 1
 382 211 382 211 383 211 c 0
 401 211 417 195 417 177 c 0
 417 159 403 145 386 144 c 2
 299 136 l 1
 295 47 l 2
 294 29 280 15 262 15 c 0
 244 15 228 30 228 48 c 0
 228 65 229 77 230 89 c 0
 231 101 231 113 231 130 c 1
 190 127 l 1
 186 32 l 2
 185 14 171 0 153 0 c 0
 135 0 120 16 120 34 c 0
 121 36 121 42 121 60 c 0
 122 79 122 97 122 121 c 1
 106 119 93 119 84 118 c 0
 70 117 63 116 60 115 c 2
 59 115 l 2
 41 115 25 131 25 149 c 0
 25 167 39 181 56 182 c 2
 125 188 l 1
 127 270 l 1
 127 270 125 270 122 270 c 0xe680
 109 269 75 266 66 266 c 0
 48 266 32 282 32 300 c 0
 32 318 46 332 64 333 c 0
EndSplineSet
Validated: 1
EndChar

StartChar: uni2318
Encoding: 24 8984 24
Width: 523
VWidth: 0
Flags: W
HStem: -83 67<92.8323 138.754 340.239 415.917> 47 67<219 273.938 343 430.118> 175 66<218.351 280> 184 68<93.0877 141.251 217 279.194 352 402.656> 315 67<106.926 136.371>
VStem: 25 67<-15.8029 26.6202 252.203 301.468> 152 67<115 178> 273 67<-13.8007 47> 404 67<254.613 302.93> 431 67<-0.227413 42.538>
LayerCount: 2
Fore
SplineSet
110 -83 m 0xef40
 58 -83 25 -48 25 6 c 0
 25 46 48 78 85 89 c 0
 108 96 130 102 152 106 c 1
 152 114 152 122 152 130 c 0
 152 147 152 164 150 183 c 1
 131 184 113 184 95 184 c 0xdf40
 54 184 26 216 26 261 c 0
 26 323 79 382 133 382 c 0
 169 382 197 356 201 320 c 0
 203 302 209 258 210 248 c 0
 210 247 210 246 210 246 c 0
 253 242 267 241 285 241 c 1
 286 260 287 276 288 291 c 0
 292 343 325 382 366 382 c 0
 414 382 471 323 471 271 c 0xef80
 471 219 433 191 347 179 c 1
 345 153 344 133 343 114 c 0
 343 114 343 114 344 114 c 0
 352 113 399 110 420 109 c 0
 464 107 498 73 498 30 c 0
 498 -28 437 -84 375 -84 c 0
 320 -84 273 -45 273 1 c 0
 273 18 274 34 274 50 c 1
 273 50 271 50 270 50 c 0
 250 50 232 49 214 47 c 1
 212 28 208 7 204 -17 c 0
 197 -55 157 -83 110 -83 c 0xef40
367 316 m 1
 367 316 l 1
352 247 m 1
 391 254 404 260 404 271 c 0xcf80
 404 284 379 313 367 315 c 0
 363 313 356 298 355 287 c 0
 354 275 353 262 352 247 c 1
142 250 m 1
 134 315 134 315 133 315 c 0
 116 315 93 284 93 261 c 0
 93 256 94 252 95 252 c 0xdf
 111 252 126 251 142 250 c 1
145 36 m 1
 97 25 92 22 92 6 c 0
 92 -11 96 -16 110 -16 c 0
 121 -16 137 -10 138 -5 c 0
 141 9 143 23 145 36 c 1
375 -17 m 0
 399 -17 431 10 431 30 c 0xcf40
 431 37 426 43 417 43 c 0
 416 43 416 43 341 47 c 1
 341 32 340 17 340 1 c 0
 340 -7 360 -17 375 -17 c 0
219 130 m 0
 219 125 219 120 219 115 c 1
 235 116 252 117 270 117 c 0
 272 117 274 117 276 117 c 0
 277 135 278 153 280 175 c 1xef
 263 175 246 176 217 178 c 1
 218 161 219 145 219 130 c 0
EndSplineSet
Validated: 1
EndChar

StartChar: uni2319
Encoding: 25 8985 25
Width: 342
Flags: W
HStem: 71 68<94.2781 312.327>
VStem: 25 69<139 147 148 224.305>
LayerCount: 2
Fore
SplineSet
25 126 m 0
 25 143 26 153 27 162 c 0
 28 171 29 180 29 197 c 0
 29 215 45 230 63 230 c 0
 81 230 97 215 97 197 c 0
 97 184 97 180 96 176 c 0
 95 172 94 169 94 156 c 2
 94 150 l 2
 94 148 l 0
 93 147 l 2
 93 139 l 1
 110 139 l 2
 111 139 112 138 113 138 c 0
 114 138 115 138 116 138 c 2
 132 138 l 2
 145 138 154 138 170 139 c 0
 183 139 200 139 223 140 c 0
 236 140 250 141 267 141 c 2
 283 141 l 2
 301 141 317 125 317 107 c 0
 317 89 301 74 283 74 c 2
 267 74 l 2
 250 74 236 73 223 73 c 0
 200 72 183 72 170 72 c 0
 154 71 145 71 132 71 c 0
 40 71 25 79 25 126 c 0
EndSplineSet
Validated: 1
EndChar

StartChar: uni231C
Encoding: 26 8988 26
Width: 900
VWidth: 0
Flags: W
HStem: 532 67<67 296.515>
VStem: 0 67<301.485 532>
LayerCount: 2
Fore
SplineSet
0 566 m 2
 0 584 15 599 34 599 c 2
 266 600 l 2
 284 600 300 584 300 566 c 0
 300 548 284 532 266 532 c 2
 67 532 l 1
 67 332 l 2
 67 314 52 298 34 298 c 0
 16 298 0 314 0 332 c 2
 0 566 l 2
EndSplineSet
Validated: 1
EndChar

StartChar: uni231D
Encoding: 27 8989 27
Width: 900
VWidth: 0
Flags: W
HStem: 299 21G<858 876> 533 67<603.485 833>
VStem: 833 67<302.293 533>
LayerCount: 2
Fore
SplineSet
867 600 m 2
 886 600 900 585 900 566 c 2
 900 332 l 2
 900 314 885 299 867 299 c 0
 849 299 833 314 833 332 c 2
 833 533 l 1
 634 533 l 2
 616 533 600 548 600 566 c 0
 600 584 616 600 634 600 c 2
 867 600 l 2
EndSplineSet
Validated: 1
EndChar

StartChar: uni231E
Encoding: 28 8990 28
Width: 900
VWidth: 0
Flags: W
HStem: -299 67<67 296.515>
VStem: 0 67<-232 -1.48541>
LayerCount: 2
Fore
SplineSet
34 -299 m 2
 16 -299 0 -284 0 -266 c 2
 0 -32 l 2
 0 -14 16 2 34 2 c 0
 52 2 67 -14 67 -32 c 2
 67 -232 l 1
 266 -232 l 2
 284 -232 300 -248 300 -266 c 0
 300 -284 284 -300 266 -300 c 2
 34 -299 l 2
EndSplineSet
Validated: 1
EndChar

StartChar: uni231F
Encoding: 29 8991 29
Width: 900
VWidth: 0
Flags: W
HStem: -300 68<603.485 833>
VStem: 833 67<-232 -1.48541>
LayerCount: 2
Fore
SplineSet
900 -266 m 2
 900 -284 884 -299 866 -299 c 2
 634 -300 l 2
 616 -300 600 -284 600 -266 c 0
 600 -248 616 -232 634 -232 c 2
 833 -232 l 1
 833 -32 l 2
 833 -14 848 2 866 2 c 0
 884 2 900 -14 900 -32 c 2
 900 -266 l 2
EndSplineSet
Validated: 1
EndChar

StartChar: uni2322
Encoding: 30 8994 30
Width: 395
VWidth: 0
Flags: W
HStem: 0 20G<49 72.5 321.5 346> 66 68<142.913 247.945>
LayerCount: 2
Fore
SplineSet
337 -1 m 0
 306 -1 286 15 266 32 c 0
 246 49 225 66 194 66 c 0
 165 66 146 49 126 33 c 0
 106 17 87 0 58 0 c 0
 40 0 25 15 25 33 c 0
 25 42 29 51 35 57 c 0
 90 111 137 134 194 134 c 0
 255 134 292 117 359 58 c 0
 366 52 370 43 370 33 c 0
 370 15 355 -1 337 -1 c 0
EndSplineSet
Validated: 1
EndChar

StartChar: uni2323
Encoding: 31 8995 31
Width: 385
VWidth: 0
Flags: W
HStem: 166 67<148.605 248.12> 280 20G<49 72 313 335>
LayerCount: 2
Fore
SplineSet
58 300 m 0
 86 300 108 283 130 266 c 0
 152 249 174 233 202 233 c 0
 228 233 246 249 264 266 c 0
 282 283 300 300 326 300 c 0
 344 300 360 285 360 267 c 0
 360 257 356 249 348 241 c 0
 286 183 252 166 202 166 c 0
 155 166 125 178 71 217 c 0
 55 229 49 233 40 239 c 1
 40 244 36 249 32 253 c 0
 28 257 25 262 25 267 c 0
 25 285 40 300 58 300 c 0
EndSplineSet
Validated: 1
EndChar

StartChar: uni2324
Encoding: 32 8996 32
Width: 627
VWidth: 0
Flags: W
HStem: -0 21G<170 183.5 409.5 424> 222 66<61.63 226.658> 234 67<28.4854 196.675 400.652 568.999>
LayerCount: 2
Fore
SplineSet
25 267 m 0xa0
 25 285 41 301 59 301 c 0xa0
 115 301 178 295 205 288 c 0
 220 284 230 271 230 256 c 0
 230 238 215 222 197 222 c 0xc0
 190 222 187 223 184 224 c 0
 177 226 165 230 101 232 c 0
 79 233 69 233 57 234 c 0
 39 235 25 249 25 267 c 0xa0
397 267 m 0
 397 285 413 300 431 300 c 0
 467 300 521 296 573 290 c 0
 590 288 602 274 602 257 c 0
 602 239 587 223 569 223 c 0
 569 223 567 224 565 224 c 0
 551 226 498 233 430 234 c 0
 412 234 397 249 397 267 c 0
179 -0 m 0
 161 0 145 15 145 33 c 0
 145 42 149 51 156 57 c 0
 266 160 299 186 323 186 c 0
 354 186 372 169 407 108 c 0
 423 80 431 67 441 53 c 0
 445 47 448 40 448 33 c 0
 448 15 433 0 415 -0 c 0
 404 0 394 4 388 13 c 0
 372 34 359 56 348 75 c 0
 338 92 331 106 323 115 c 1
 298 97 264 68 201 9 c 0
 195 3 188 0 179 -0 c 0
EndSplineSet
Validated: 1
EndChar

StartChar: uni2325
Encoding: 33 8997 33
Width: 708
VWidth: 0
Flags: W
HStem: 4 67<414.513 677.247> 218 67<60.1221 306.318> 227 67<465.795 639.707> 235 66<28.6424 186.613 435.293 552.411>
LayerCount: 2
Fore
SplineSet
189 285 m 0xc0
 197 285 224 286 250 288 c 0
 276 290 302 291 310 291 c 2
 311 291 l 2
 333 291 348 283 354 266 c 0
 369 225 393 154 421 68 c 1
 466 70 504 71 537 71 c 0
 575 71 606 70 652 66 c 0
 669 65 683 50 683 33 c 0
 683 15 668 -1 650 -1 c 0
 635 -1 614 1 593 2 c 0
 572 3 552 4 537 4 c 0
 519 4 493 3 467 2 c 0
 441 1 416 0 398 -0 c 0
 384 0 370 9 366 23 c 2
 342 95 314 178 298 224 c 1
 211 218 211 218 189 218 c 0xc0
 138 218 92 224 50 235 c 0
 35 239 25 252 25 267 c 0
 25 285 41 301 59 301 c 0x90
 83 301 103 297 124 293 c 0
 145 289 165 285 189 285 c 0xc0
554 294 m 0xa0
 558 294 570 294 582 294 c 0
 594 294 606 294 610 294 c 0
 628 294 643 279 643 261 c 0
 643 243 628 228 610 228 c 0
 560 227 561 227 554 227 c 0xa0
 520 227 492 229 460 234 c 0
 444 237 432 251 432 267 c 0
 432 285 447 301 465 301 c 0x90
 482 301 496 299 510 297 c 0
 524 295 537 294 554 294 c 0xa0
EndSplineSet
Validated: 1
EndChar

StartChar: uni2326
Encoding: 34 8998 34
Width: 589
VWidth: 0
Flags: W
HStem: 4 67<93 408.138> 74 66<272.329 328.404> 223 67<95.7364 249.469> 233 67<161.714 404.642>
VStem: 26 67<68 224>
LayerCount: 2
Fore
SplineSet
564 164 m 0xd8
 564 137 531 109 500 83 c 0
 480 66 460 50 450 34 c 0
 450 33 l 0
 450 15 435 -1 416 -1 c 0
 415 -1 415 -0 414 -0 c 2
 370 3 295 4 234 4 c 0
 208 4 177 3 147 2 c 0
 117 1 86 0 60 -0 c 0
 42 0 28 14 27 32 c 0
 26 47 26 72 26 95 c 0
 26 147 27 198 31 243 c 0
 27 249 25 255 25 262 c 0
 25 282 44 301 67 301 c 0
 76 301 85 297 91 291 c 1
 100 291 110 290 121 290 c 0xe8
 144 290 198 292 252 295 c 0
 306 298 361 300 384 300 c 0
 390 300 396 299 401 296 c 0
 479 249 537 209 552 192 c 0
 560 183 564 174 564 164 c 0xd8
294 190 m 0
 294 178 292 175 271 153 c 1
 282 149 294 144 308 140 c 0
 322 136 332 123 332 108 c 0
 332 90 316 74 298 74 c 0
 287 74 245 90 218 103 c 1
 186 78 180 74 169 74 c 0
 151 74 136 90 136 108 c 0
 136 122 140 128 158 141 c 1
 129 164 124 171 124 186 c 0
 124 204 139 219 157 219 c 0
 165 219 174 217 180 211 c 0
 191 201 201 193 210 186 c 1
 246 224 246 224 260 224 c 0
 278 224 294 208 294 190 c 0
376 233 m 0xd8
 283 228 158 223 108 223 c 0xe8
 104 223 100 224 97 224 c 1
 94 184 93 140 93 95 c 0
 93 86 93 77 93 68 c 1
 138 70 185 71 234 71 c 0
 287 71 342 70 392 68 c 1
 402 86 417 101 459 137 c 0
 474 149 480 156 486 161 c 1
 460 180 424 204 376 233 c 0xd8
EndSplineSet
Validated: 1
EndChar

StartChar: uni2327
Encoding: 35 8999 35
Width: 475
VWidth: 0
Flags: W
HStem: 4 67<93 375> 74 66<272.329 328.404> 223 67<95.7364 249.469> 232 68<138.41 355.714>
VStem: 26 67<68 224>
LayerCount: 2
Fore
SplineSet
25 262 m 0xd8
 25 282 44 301 67 301 c 0
 76 301 85 297 91 291 c 1
 100 291 110 290 121 290 c 0xe8
 144 290 198 292 252 295 c 0
 306 298 361 300 384 300 c 0
 401 300 417 287 418 270 c 0
 429 137 445 60 449 39 c 0
 450 36 450 33 450 33 c 0
 450 15 435 -1 416 -1 c 0
 415 -1 415 -0 414 -0 c 2
 370 3 295 4 234 4 c 0
 208 4 177 3 147 2 c 0
 117 1 86 0 60 -0 c 0
 42 0 28 14 27 32 c 0
 26 47 26 72 26 95 c 0
 26 147 27 198 31 243 c 0
 27 249 25 255 25 262 c 0xd8
136 108 m 0
 136 122 140 128 158 141 c 1
 151 147 143 154 135 161 c 0
 134 162 l 0
 132 164 124 172 124 186 c 0
 124 204 139 219 157 219 c 0
 165 219 174 217 180 211 c 0
 191 201 201 193 210 186 c 1
 246 224 246 224 260 224 c 0
 278 224 294 208 294 190 c 0
 294 178 292 175 271 153 c 1
 282 149 294 144 308 140 c 0
 322 136 332 123 332 108 c 0
 332 90 316 74 298 74 c 0
 287 74 245 90 218 103 c 1
 186 78 180 74 169 74 c 0
 151 74 136 90 136 108 c 0
121 223 m 0
 112 223 104 224 97 224 c 1
 94 184 93 140 93 95 c 0
 93 86 93 77 93 68 c 1
 138 70 185 71 234 71 c 0
 281 71 330 71 375 69 c 1
 367 111 360 168 354 232 c 1xd8
 249 226 171 223 121 223 c 0
EndSplineSet
Validated: 1
EndChar

StartChar: angleleft
Encoding: 36 9001 36
Width: 311
VWidth: 0
Flags: W
HStem: -234 21G<225.5 242> 447 20G<246.5 262>
VStem: 200 66<-230.876 -147.963> 222 64<408.662 463.791>
LayerCount: 2
Fore
SplineSet
253 467 m 0xd0
 271 467 286 451 286 433 c 0xd0
 286 428 285 424 283 420 c 0
 247 337 189 267 145 213 c 0
 123 187 105 164 94 146 c 1
 102 130 115 110 131 87 c 0
 173 25 232 -64 265 -192 c 0
 266 -194 266 -196 266 -200 c 0
 266 -218 251 -234 233 -234 c 0
 218 -234 204 -223 200 -208 c 0xe0
 168 -85 111 -1 71 58 c 0
 44 97 25 126 25 148 c 0
 25 173 55 209 93 255 c 0
 136 307 190 372 222 446 c 0
 227 458 240 467 253 467 c 0xd0
EndSplineSet
Validated: 1
EndChar

StartChar: angleright
Encoding: 37 9002 37
Width: 312
VWidth: 0
Flags: W
HStem: -234 21G<70 86.5> 447 20G<50 66>
VStem: 25 65<407.807 463.515>
LayerCount: 2
Fore
SplineSet
59 467 m 0
 73 467 85 458 90 446 c 0
 123 370 177 305 220 253 c 0
 258 207 287 172 287 148 c 0
 287 126 267 97 240 57 c 0
 199 -3 141 -88 111 -208 c 0
 107 -224 94 -234 79 -234 c 0
 61 -234 45 -218 45 -200 c 0
 45 -195 45 -194 46 -192 c 0
 80 -59 146 38 187 98 c 0
 201 118 212 134 218 146 c 1
 211 158 196 176 177 198 c 0
 132 252 66 333 28 420 c 0
 26 424 25 428 25 433 c 0
 25 451 41 467 59 467 c 0
EndSplineSet
Validated: 1
EndChar

StartChar: uni232B
Encoding: 38 9003 38
Width: 612
VWidth: 0
Flags: W
HStem: -1 21G<552.5 562.5> 4 67<178.002 511> 74 66<409.329 465.404> 223 67<211.519 386.469> 232 68<275.41 492.689>
LayerCount: 2
Fore
SplineSet
371 4 m 0x60
 345 4 314 3 284 2 c 0
 254 1 223 0 197 -0 c 0
 190 0 184 2 178 6 c 0
 113 52 57 95 40 114 c 0
 30 125 25 135 25 147 c 0
 25 172 39 187 111 235 c 0
 141 255 154 264 163 272 c 1
 167 288 186 300 204 300 c 0x68
 213 300 222 297 228 291 c 1
 237 291 247 290 258 290 c 0x30
 281 290 335 292 389 295 c 0
 443 298 498 300 521 300 c 0
 538 300 553 287 554 270 c 0
 565 137 582 60 586 39 c 0
 587 36 587 33 587 33 c 0
 587 15 572 -1 553 -1 c 0xa8
 552 -1 552 -0 551 -0 c 2
 507 3 432 4 371 4 c 0x60
431 190 m 0
 431 178 429 175 408 153 c 1
 419 149 431 144 445 140 c 0
 459 136 469 123 469 108 c 0
 469 90 453 74 435 74 c 0
 424 74 382 90 355 103 c 1
 323 78 317 74 306 74 c 0
 288 74 273 90 273 108 c 0
 273 122 277 128 295 141 c 1
 266 164 261 171 261 186 c 0
 261 204 276 219 294 219 c 0
 302 219 311 217 317 211 c 0
 328 201 338 193 347 186 c 1
 383 224 383 224 397 224 c 0
 415 224 431 208 431 190 c 0
258 223 m 0x30
 237 223 222 224 211 225 c 1
 195 211 170 193 147 178 c 0
 130 167 114 156 103 147 c 1
 123 130 161 101 207 67 c 1
 239 69 335 71 371 71 c 0
 418 71 466 71 511 69 c 1
 503 111 497 169 491 232 c 1x68
 386 226 308 223 258 223 c 0x30
EndSplineSet
Validated: 1
EndChar

StartChar: uni232C
Encoding: 39 9004 39
Width: 463
VWidth: 0
Flags: W
HStem: 61 177<120.293 180.515> 161 63<286.935 340.05> 206 64<197.293 250.24>
VStem: 25 67<69 231> 117 67<64.2926 234.515> 201 153<55 107> 371 67<69 231>
LayerCount: 2
Fore
SplineSet
231 383 m 0x1e
 237 383 243 381 248 378 c 2
 421 279 l 2
 431 273 438 262 438 250 c 2
 438 50 l 2
 438 38 431 27 421 21 c 2
 248 -79 l 2
 243 -82 238 -83 232 -83 c 0
 226 -83 220 -82 215 -79 c 2
 42 21 l 2
 32 27 25 38 25 50 c 2
 25 250 l 2
 25 262 32 273 42 279 c 2
 215 378 l 2
 220 381 225 383 231 383 c 0x1e
194 236 m 0
 194 254 209 270 227 270 c 0x3e
 236 270 236 270 284 245 c 0
 303 235 312 230 324 224 c 0
 335 218 343 207 343 194 c 0
 343 176 328 161 310 161 c 0
 309 161 309 161 308 161 c 0x5e
 301 161 297 162 253 185 c 0
 234 195 224 200 212 206 c 0x3e
 201 212 194 223 194 236 c 0
321 141 m 0
 339 141 354 125 354 107 c 0
 354 95 347 84 337 78 c 0
 337 78 333 75 325 70 c 0
 301 56 252 26 251 26 c 0
 246 23 240 22 234 22 c 0
 216 22 201 37 201 55 c 0
 201 67 207 78 217 84 c 0
 221 87 240 98 259 109 c 0
 278 121 298 133 303 136 c 0
 308 139 315 141 321 141 c 0
184 94 m 2
 184 76 168 61 150 61 c 0
 132 61 117 76 117 94 c 2
 117 204 l 2
 117 222 132 238 150 238 c 0x9e
 168 238 184 222 184 204 c 2
 184 94 l 2
231 310 m 1
 92 231 l 1
 92 69 l 1
 231 -11 l 1
 371 69 l 1
 371 231 l 1
 231 310 l 1
EndSplineSet
Validated: 1
EndChar

StartChar: uni237B
Encoding: 40 9083 40
Width: 472
VWidth: 0
Flags: W
HStem: 234 67<174.293 248.61 362.033 443.707>
LayerCount: 2
Fore
SplineSet
383 348 m 0
 383 340 383 340 361 298 c 1
 382 299 405 301 414 301 c 0
 432 301 447 285 447 267 c 0
 447 249 432 234 414 234 c 0
 412 234 412 233 324 228 c 1
 282 144 252 79 216 -11 c 0
 190 -74 182 -84 158 -84 c 0
 128 -84 118 -58 103 -23 c 0
 90 9 73 47 36 82 c 0
 29 88 25 98 25 107 c 0
 25 125 40 140 58 140 c 0
 66 140 75 138 81 132 c 0
 112 103 136 68 157 22 c 1
 187 96 214 157 249 228 c 1
 233 229 217 231 199 234 c 0
 183 237 171 250 171 267 c 0
 171 285 186 301 204 301 c 0
 206 301 210 300 216 299 c 0
 229 297 253 294 283 294 c 1
 295 317 307 340 320 364 c 0
 326 375 338 382 350 382 c 0
 368 382 383 366 383 348 c 0
EndSplineSet
Validated: 1
EndChar

StartChar: uni237D
Encoding: 41 9085 41
Width: 625
VWidth: 0
Flags: W
HStem: -0 66<244 376> 119 67<28.44 183.794 449.107 596.707> 128 67<437.566 566.474>
LayerCount: 2
Fore
SplineSet
376 66 m 1xc0
 370 123 370 124 370 135 c 0
 370 180 390 195 448 195 c 0xa0
 472 195 471 195 570 186 c 0
 587 184 600 170 600 153 c 0
 600 135 585 119 567 119 c 0xc0
 556 119 531 122 507 124 c 0
 483 126 459 128 448 128 c 0
 445 128 440 128 437 128 c 0xa0
 438 116 439 102 441 89 c 0
 443 73 445 57 445 45 c 0
 445 17 431 0 408 -0 c 2
 209 -0 l 2
 188 0 172 16 172 40 c 0
 172 53 174 65 178 80 c 0
 180 89 183 99 185 112 c 1
 160 114 125 117 57 119 c 0
 39 120 25 134 25 152 c 0
 25 170 40 186 58 186 c 0
 106 186 202 179 219 175 c 0
 242 169 254 153 254 127 c 0
 254 112 254 112 244 66 c 1
 376 66 l 1xc0
EndSplineSet
Validated: 1
EndChar

StartChar: uni237E
Encoding: 42 9086 42
Width: 575
VWidth: 0
Flags: W
HStem: -84 67<28.5339 167.785 417 516.712> -76 67<417.665 546.56> 101 67<248.337 356 423 472.589> 316 67<214.198 379.197>
VStem: 71 67<176.924 255.84> 356 67<-16.9883 101> 475 67<171.108 231.245>
LayerCount: 2
Fore
SplineSet
414 -84 m 0xbe
 368 -84 350 -69 350 -30 c 0
 350 -15 355 74 356 96 c 0
 356 99 356 101 356 101 c 1
 355 101 l 0
 354 101 l 0
 320 101 282 102 247 103 c 1
 243 57 237 4 231 -46 c 0
 229 -59 220 -70 208 -75 c 0
 194 -81 166 -81 134 -81 c 0
 111 -81 85 -81 62 -83 c 0
 61 -83 60 -84 59 -84 c 0
 41 -84 25 -68 25 -50 c 0
 25 -33 38 -19 55 -17 c 0
 79 -15 96 -14 118 -14 c 0
 132 -14 147 -14 167 -13 c 1
 172 28 177 69 180 106 c 1
 111 110 97 115 88 134 c 0
 76 160 71 184 71 208 c 0
 71 304 176 383 307 383 c 0
 424 383 542 278 542 174 c 0
 542 162 540 150 537 138 c 0
 530 112 507 105 423 102 c 1
 423 99 421 53 419 19 c 0
 418 -1 417 -17 417 -17 c 1xbe
 431 -17 457 -14 478 -12 c 0
 496 -10 511 -9 517 -9 c 0
 535 -9 550 -25 550 -43 c 0
 550 -61 536 -75 518 -76 c 0x7e
 504 -77 489 -79 474 -80 c 0
 452 -82 432 -84 414 -84 c 0xbe
354 168 m 0
 412 168 475 171 475 174 c 0
 475 241 386 316 307 316 c 0
 216 316 138 265 138 208 c 0
 138 198 139 188 143 177 c 1
 187 172 272 168 354 168 c 0
EndSplineSet
Validated: 1
EndChar

StartChar: uni237F
Encoding: 43 9087 43
Width: 219
VWidth: 0
Flags: W
VStem: 66 67<-80.3479 67.4401> 72 68<-49.593 68.0353 228.698 348.999>
LayerCount: 2
Fore
SplineSet
78 243 m 1x40
 77 294 71 335 69 346 c 0
 69 348 68 349 68 349 c 0
 68 367 84 383 102 383 c 0
 118 383 132 371 135 355 c 0
 141 319 145 281 146 237 c 1
 176 221 194 190 194 158 c 0
 194 127 172 91 140 70 c 1x40
 137 15 134 -15 133 -51 c 0
 132 -69 118 -84 100 -84 c 0
 82 -84 66 -68 66 -50 c 0x80
 66 -42 69 10 72 57 c 0
 42 67 25 102 25 153 c 0
 25 199 44 232 78 243 c 1x40
EndSplineSet
Validated: 1
EndChar

StartChar: uni238D
Encoding: 44 9101 44
Width: 525
VWidth: 0
Flags: W
HStem: -1 69<59.2864 148.383 385 466.999 467 493.351> -0 77<35.25 148.383> 234 67<217.167 317.106>
VStem: 149 67<67 231.867> 315 185<8.10492 67.2448> 321 67<68 230.874>
LayerCount: 2
Fore
SplineSet
149 196 m 0x74
 149 293 157 301 252 301 c 0
 349 301 375 293 380 265 c 0
 386 227 388 194 388 154 c 0x74
 388 128 387 100 385 68 c 1
 435 70 459 71 465 71 c 0
 466 71 467 72 467 72 c 0
 485 72 500 56 500 38 c 0
 500 21 486 6 469 5 c 0
 447 3 368 -1 349 -1 c 0
 330 -1 315 15 315 33 c 0xb8
 315 47 316 71 318 94 c 0
 320 117 321 140 321 154 c 0
 321 183 320 208 317 232 c 1
 298 234 272 234 252 234 c 0
 240 234 227 234 217 233 c 1
 216 224 216 212 216 196 c 0
 216 194 217 177 217 161 c 0
 217 145 217 128 217 126 c 0
 217 96 216 69 215 43 c 0
 214 23 199 7 176 2 c 0
 169 1 163 0 154 -0 c 0
 141 0 122 1 92 5 c 0
 73 7 64 9 56 10 c 0
 39 11 25 26 25 43 c 0
 25 61 41 77 59 77 c 0
 65 77 78 75 94 73 c 0
 113 71 136 68 149 67 c 1
 150 85 150 105 150 126 c 0
 150 138 150 149 150 161 c 0
 150 173 149 184 149 196 c 0x74
EndSplineSet
Validated: 1
EndChar

StartChar: uni238E
Encoding: 45 9102 45
Width: 496
VWidth: 0
Flags: W
HStem: 4 67 224 66<369.31 468.05> 234 67<213.031 301 368 437.197>
VStem: 143 67<73.8502 222.578> 302 67<93.5566 228>
LayerCount: 2
Fore
SplineSet
145 132 m 0xd8
 145 142 144 153 144 163 c 0
 144 173 143 184 143 194 c 0
 143 249 151 271 174 280 c 0
 208 294 243 301 283 301 c 0xb8
 308 301 333 298 358 296 c 0
 383 294 409 290 438 290 c 0
 456 290 471 275 471 257 c 0
 471 239 456 224 438 224 c 0
 421 224 396 225 368 228 c 1
 368 216 369 205 369 196 c 0
 369 145 363 118 333 33 c 0
 330 24 323 17 315 13 c 0
 309 7 301 4 292 4 c 0
 289 4 257 4 226 5 c 0
 195 6 164 6 161 6 c 0
 147 6 128 5 110 3 c 0
 92 1 73 -1 59 -1 c 0
 41 -1 25 15 25 33 c 0
 25 50 37 64 54 66 c 0
 81 70 108 72 136 73 c 1
 143 91 144 118 145 128 c 0
 145 130 145 131 145 132 c 0xd8
205 72 m 1
 234 71 248 71 256 71 c 0
 265 71 268 71 275 71 c 1
 298 137 302 153 302 196 c 0
 302 206 302 218 301 233 c 1
 295 233 288 234 283 234 c 0
 256 234 234 231 212 223 c 1
 211 214 210 205 210 194 c 0
 210 193 211 178 211 163 c 0
 211 148 212 133 212 132 c 0
 212 110 210 91 205 72 c 1
EndSplineSet
Validated: 1
EndChar

StartChar: uni238F
Encoding: 46 9103 46
Width: 340
VWidth: 0
Flags: W
HStem: -0 21G<154 168> 281 20G<186.5 201.5> 310 66<27.9501 280.128> 316 67<171.688 311.707>
VStem: 25 290<318.73 372.75>
LayerCount: 2
Fore
SplineSet
161 -0 m 0xc8
 147 0 134 8 129 22 c 0
 121 49 84 96 48 123 c 0
 40 129 35 141 35 151 c 0
 35 172 47 185 148 273 c 0
 180 301 180 301 193 301 c 0
 210 301 225 290 256 252 c 0
 291 210 304 185 304 169 c 0
 304 154 302 150 278 130 c 0
 222 83 209 65 192 21 c 0
 187 8 175 0 161 -0 c 0xc8
58 376 m 0xe8
 98 376 134 378 170 380 c 0
 206 382 242 383 282 383 c 0
 300 383 315 367 315 349 c 0
 315 331 302 317 284 316 c 0xd8
 212 311 155 310 58 310 c 0
 40 310 25 325 25 343 c 0
 25 361 40 376 58 376 c 0xe8
159 104 m 1
 175 127 192 144 229 176 c 1
 217 193 204 209 192 223 c 1
 154 191 131 169 115 154 c 1
 131 139 146 122 159 104 c 1
EndSplineSet
Validated: 1
EndChar

StartChar: uni2390
Encoding: 47 9104 47
Width: 340
VWidth: 0
Flags: W
HStem: -83 67<28.2926 308.378> -0 21G<145 159> 281 20G<177.5 192.5>
VStem: 25 290<-74.1314 -19.1941>
LayerCount: 2
Fore
SplineSet
152 -0 m 0
 138 0 125 8 120 22 c 0
 112 49 75 96 39 123 c 0
 31 129 26 141 26 151 c 0
 26 172 38 185 139 273 c 0
 171 301 171 301 184 301 c 0
 201 301 216 290 247 252 c 0
 282 210 295 185 295 169 c 0
 295 154 293 150 269 130 c 0
 213 83 200 65 183 21 c 0
 178 8 166 0 152 -0 c 0
58 -16 m 0
 98 -16 134 -15 170 -13 c 0
 206 -11 242 -10 282 -10 c 0
 300 -10 315 -25 315 -43 c 0
 315 -61 302 -76 284 -77 c 0
 212 -82 155 -83 58 -83 c 0
 40 -83 25 -68 25 -50 c 0
 25 -32 40 -16 58 -16 c 0
150 104 m 1
 166 127 183 144 220 176 c 1
 208 193 195 209 183 223 c 1
 145 191 122 169 106 154 c 1
 122 139 137 122 150 104 c 1
EndSplineSet
Validated: 1
EndChar

StartChar: uni2391
Encoding: 48 9105 48
Width: 340
VWidth: 0
Flags: W
HStem: -0 21G<154 168> 281 20G<186.5 201.5> 310 66<27.9501 280.128> 316 67<171.688 311.707>
VStem: 25 290<318.73 372.75>
LayerCount: 2
Fore
SplineSet
161 -0 m 0xc8
 147 0 134 8 129 22 c 0
 121 49 84 96 48 123 c 0
 40 129 35 141 35 151 c 0
 35 172 47 185 148 273 c 0
 180 301 180 301 193 301 c 0
 210 301 225 290 256 252 c 0
 291 210 304 185 304 169 c 0
 304 154 302 150 278 130 c 0
 222 83 209 65 192 21 c 0
 187 8 175 0 161 -0 c 0xc8
58 376 m 0xe8
 98 376 134 378 170 380 c 0
 206 382 242 383 282 383 c 0
 300 383 315 367 315 349 c 0
 315 331 302 317 284 316 c 0xd8
 212 311 155 310 58 310 c 0
 40 310 25 325 25 343 c 0
 25 361 40 376 58 376 c 0xe8
159 104 m 1
 163 110 167 116 172 122 c 1
 164 121 156 120 148 119 c 1
 152 114 155 109 159 104 c 1
213 197 m 1
 206 206 200 214 192 223 c 1
 175 208 162 197 151 187 c 1
 170 189 190 192 213 197 c 1
EndSplineSet
Validated: 1
EndChar

StartChar: uni2392
Encoding: 49 9106 49
Width: 340
VWidth: 0
Flags: W
HStem: -83 67<28.2926 308.378> -0 21G<146 160> 281 20G<178.5 193.5>
VStem: 25 290<-74.1314 -19.1941>
LayerCount: 2
Fore
SplineSet
153 -0 m 0
 139 0 126 8 121 22 c 0
 113 49 76 96 40 123 c 0
 32 129 27 141 27 151 c 0
 27 172 39 185 140 273 c 0
 172 301 172 301 185 301 c 0
 202 301 217 290 248 252 c 0
 283 210 296 185 296 169 c 0
 296 154 294 150 270 130 c 0
 214 83 201 65 184 21 c 0
 179 8 167 0 153 -0 c 0
58 -16 m 0
 98 -16 134 -15 170 -13 c 0
 206 -11 242 -10 282 -10 c 0
 300 -10 315 -25 315 -43 c 0
 315 -61 302 -76 284 -77 c 0
 212 -82 155 -83 58 -83 c 0
 40 -83 25 -68 25 -50 c 0
 25 -32 40 -16 58 -16 c 0
151 104 m 1
 155 110 159 116 164 122 c 1
 156 121 148 120 140 119 c 1
 144 114 147 109 151 104 c 1
205 197 m 1
 198 206 192 214 184 223 c 1
 167 208 154 197 143 187 c 1
 162 189 182 192 205 197 c 1
EndSplineSet
Validated: 1
EndChar

StartChar: uni2393
Encoding: 50 9107 50
Width: 574
VWidth: 0
Flags: W
HStem: 53 67<40.2632 188.05> 66 75<226.127 362.873> 74 67<252.106 367.707 409.695 435> 78 75<435.004 538.255> 168 67<30.3262 364.526> 188 67<275.474 545.707>
VStem: 37 154<57.2582 115.742> 218 153<76.9409 130.059> 404 142<88.8425 142.158>
LayerCount: 2
Fore
SplineSet
491 188 m 0x0780
 431 188 376 183 320 178 c 0
 264 173 209 168 149 168 c 0
 117 168 86 169 56 172 c 0
 39 173 25 188 25 205 c 0
 25 223 41 239 59 239 c 0
 73 239 89 238 104 237 c 0
 119 236 135 235 149 235 c 0x0b80
 209 235 264 240 320 245 c 0
 376 250 431 255 491 255 c 0
 500 255 507 254 516 254 c 0
 534 254 549 239 549 221 c 0
 549 203 534 188 516 188 c 0
 512 188 507 188 503 188 c 0
 499 188 495 188 491 188 c 0x0780
133 120 m 0x8380
 177 120 191 112 191 86 c 0
 191 68 176 52 158 52 c 0
 155 52 150 53 145 53 c 0
 140 53 136 53 133 53 c 0
 133 53 123 53 114 53 c 0
 105 53 95 53 95 53 c 0
 51 53 37 61 37 87 c 0
 37 105 53 121 71 121 c 0
 74 121 78 120 83 120 c 0
 88 120 92 120 95 120 c 0
 95 120 105 120 114 120 c 0
 123 120 133 120 133 120 c 0x8380
252 66 m 0x4380
 234 66 218 82 218 100 c 0
 218 117 231 131 248 133 c 0
 254 134 337 141 338 141 c 0x4380
 356 141 371 125 371 107 c 0
 371 90 358 76 341 74 c 0x2380
 335 73 253 66 252 66 c 0x4380
437 78 m 0x1380
 419 78 404 94 404 112 c 0
 404 130 417 144 435 145 c 0
 435 145 440 146 447 147 c 0
 468 149 511 153 513 153 c 0
 531 153 546 137 546 119 c 0
 546 101 533 87 515 86 c 0
 498 85 480 83 465 81 c 0
 452 80 441 78 437 78 c 0x1380
EndSplineSet
Validated: 1
EndChar

StartChar: uni2394
Encoding: 51 9108 51
Width: 517
VWidth: 0
Flags: W
HStem: -57 67<178 339> 289 67<178 339>
LayerCount: 2
Fore
SplineSet
178 289 m 1
 97 150 l 1
 178 10 l 1
 339 10 l 1
 419 150 l 1
 339 289 l 1
 178 289 l 1
130 339 m 2
 136 349 148 356 159 356 c 2
 358 357 l 2
 370 357 381 350 387 340 c 2
 487 167 l 2
 490 162 492 156 492 150 c 0
 492 144 490 138 487 133 c 2
 387 -40 l 2
 381 -50 369 -57 358 -57 c 2
 158 -57 l 2
 146 -57 135 -50 129 -40 c 2
 29 133 l 2
 26 137 25 143 25 149 c 0
 25 155 27 161 30 167 c 2
 130 339 l 2
EndSplineSet
Validated: 1
EndChar

StartChar: uni23B7
Encoding: 52 9143 52
Width: 378
VWidth: 0
Flags: W
HStem: 490 66<281.738 350.05>
LayerCount: 2
Fore
SplineSet
277 560 m 0
 287 560 292 559 298 558 c 0
 304 557 310 556 320 556 c 0
 338 556 353 541 353 523 c 0
 353 505 338 490 320 490 c 0
 313 490 299 491 286 492 c 1
 275 444 261 353 246 258 c 0
 227 137 207 9 191 -42 c 0
 182 -72 170 -84 150 -84 c 0
 129 -84 124 -78 100 -31 c 0
 66 40 46 66 36 80 c 0
 28 91 25 95 25 106 c 0
 25 124 40 140 58 140 c 0
 80 140 97 118 141 37 c 1
 149 80 160 148 172 223 c 0
 185 304 198 392 211 462 c 0
 224 528 230 543 247 552 c 0
 257 557 268 560 277 560 c 0
EndSplineSet
Validated: 1
EndChar

StartChar: uni23B8
Encoding: 53 9144 53
Width: 900
VWidth: 0
Flags: W
VStem: 0 67<-296.515 596.515>
LayerCount: 2
Fore
SplineSet
0 566 m 2
 0 584 16 600 34 600 c 0
 52 600 67 584 67 566 c 2
 67 -266 l 2
 67 -284 52 -300 34 -300 c 0
 16 -300 0 -284 0 -266 c 2
 0 566 l 2
EndSplineSet
Validated: 1
EndChar

StartChar: uni23B9
Encoding: 54 9145 54
Width: 900
VWidth: 0
Flags: W
VStem: 833 67<-296.515 596.515>
LayerCount: 2
Fore
SplineSet
833 566 m 2
 833 584 848 600 866 600 c 0
 884 600 900 584 900 566 c 2
 900 -266 l 2
 900 -284 884 -300 866 -300 c 0
 848 -300 833 -284 833 -266 c 2
 833 566 l 2
EndSplineSet
Validated: 1
EndChar

StartChar: uni23BA
Encoding: 55 9146 55
Width: 900
VWidth: 0
Flags: W
HStem: 533 67<3.67825 896.515>
LayerCount: 2
Fore
SplineSet
34 533 m 2
 15 533 0 548 0 566 c 0
 0 584 16 600 34 600 c 2
 866 600 l 2
 884 600 900 584 900 566 c 0
 900 548 884 532 866 532 c 2
 34 533 l 2
EndSplineSet
Validated: 1
EndChar

StartChar: uni23BB
Encoding: 56 9147 56
Width: 900
VWidth: 0
Flags: W
HStem: 342 66<3.31485 896.876>
LayerCount: 2
Fore
SplineSet
34 342 m 2
 15 342 0 357 0 375 c 0
 0 393 16 408 34 408 c 2
 866 408 l 2
 884 408 900 393 900 375 c 0
 900 357 884 342 866 342 c 2
 34 342 l 2
EndSplineSet
Validated: 1
EndChar

StartChar: uni23BC
Encoding: 57 9148 57
Width: 900
VWidth: 0
Flags: W
HStem: -108 66<3.31485 896.876>
LayerCount: 2
Fore
SplineSet
34 -108 m 2
 15 -108 0 -93 0 -75 c 0
 0 -57 16 -42 34 -42 c 2
 866 -42 l 2
 884 -42 900 -57 900 -75 c 0
 900 -93 884 -108 866 -108 c 2
 34 -108 l 2
EndSplineSet
Validated: 1
EndChar

StartChar: uni23BD
Encoding: 58 9149 58
Width: 900
VWidth: 0
Flags: W
HStem: -300 66<3.31485 896.876>
LayerCount: 2
Fore
SplineSet
34 -300 m 2
 15 -300 0 -285 0 -267 c 0
 0 -249 16 -234 34 -234 c 2
 866 -234 l 2
 884 -234 900 -249 900 -267 c 0
 900 -285 884 -300 866 -300 c 2
 34 -300 l 2
EndSplineSet
Validated: 1
EndChar

StartChar: uni23CE
Encoding: 59 9166 59
Width: 550
Flags: W
HStem: -100 66<157 458>
VStem: 458 67<-34 396.707>
LayerCount: 2
Fore
SplineSet
525 -67 m 2
 525 -85 510 -100 491 -100 c 2
 157 -100 l 1
 238 -162 l 2
 246 -168 251 -178 251 -189 c 0
 251 -207 236 -223 218 -223 c 0
 210 -223 204 -221 197 -216 c 2
 38 -94 l 2
 30 -88 25 -78 25 -67 c 0
 25 -57 29 -48 38 -40 c 2
 197 82 l 2
 204 87 210 89 218 89 c 0
 236 89 251 73 251 55 c 0
 251 44 246 34 238 28 c 2
 157 -34 l 1
 458 -34 l 1
 458 367 l 2
 458 385 474 400 492 400 c 0
 510 400 525 385 525 367 c 2
 525 -67 l 2
EndSplineSet
Validated: 1
EndChar

StartChar: uni23CF
Encoding: 60 9167 60
Width: 350
VWidth: 0
Flags: W
HStem: 0 150<25 325>
LayerCount: 2
Fore
SplineSet
25 0 m 1
 25 150 l 1
 325 150 l 1
 325 0 l 1
 25 0 l 1
25 233 m 1
 175 383 l 1
 325 233 l 1
 25 233 l 1
EndSplineSet
Validated: 1
EndChar

StartChar: uni23DA
Encoding: 61 9178 61
Width: 408
VWidth: 0
Flags: W
HStem: -116 66<157.298 282.05> -25 67<148.214 312.018> -18 67<105.124 270.787> 79 67<59.0007 159.153>
VStem: 163 63<150.111 359.491> 167 67<270.688 413.876>
LayerCount: 2
Fore
SplineSet
234 383 m 0x94
 234 376 227 157 226 149 c 1x98
 235 150 253 151 273 153 c 0
 306 156 343 160 350 160 c 0
 368 160 383 144 383 126 c 0
 383 108 370 94 352 93 c 0
 352 93 350 92 348 92 c 0
 326 90 209 79 167 79 c 0x94
 131 79 94 83 53 89 c 0
 37 92 25 106 25 122 c 0
 25 140 41 156 59 156 c 0
 59 156 60 155 62 155 c 0
 74 153 117 147 158 146 c 1
 161 190 162 229 163 269 c 0x98
 164 305 164 342 167 385 c 0
 168 403 183 417 201 417 c 0
 219 417 234 401 234 383 c 0x94
315 9 m 0
 315 -13 301 -25 272 -25 c 0xd0
 246 -25 228 -24 210 -22 c 0
 192 -20 173 -18 147 -18 c 0
 143 -18 140 -18 136 -18 c 0
 118 -18 102 -3 102 15 c 0
 102 38 116 49 147 49 c 0xb0
 173 49 192 48 210 46 c 0
 228 44 246 42 272 42 c 0
 273 42 275 42 277 42 c 0
 279 42 281 42 282 42 c 0xd0
 300 42 315 27 315 9 c 0
252 -116 m 0
 150 -116 122 -108 122 -76 c 0
 122 -58 138 -42 156 -42 c 0
 184 -42 192 -44 200 -46 c 0
 208 -48 216 -50 244 -50 c 0
 245 -50 247 -50 248 -50 c 0
 249 -50 251 -50 252 -50 c 0
 270 -50 285 -65 285 -83 c 0
 285 -101 270 -116 252 -116 c 0
EndSplineSet
Validated: 1
EndChar

StartChar: uni23DB
Encoding: 62 9179 62
Width: 831
VWidth: 0
Flags: W
HStem: -0 67<301.506 543.595> 116 67<28.2926 58 59 235.026 312.314 542.684> 140 67<330.587 546 615.53 802.707> 228 65<366.528 545> 235 67<315.617 534.422>
VStem: 233 67<71.4973 122> 545 68<68 133 202 226.172>
LayerCount: 2
Fore
SplineSet
456 -0 m 0xb6
 265 0 233 9 233 67 c 0
 233 80 234 100 236 122 c 1
 176 120 118 118 59 117 c 0
 58 116 l 0
 40 116 25 132 25 150 c 0
 25 168 40 183 58 183 c 0
 120 185 180 187 244 189 c 1
 258 298 261 302 318 302 c 0xce
 366 302 555 295 578 293 c 0
 606 290 612 273 613 202 c 1
 665 204 767 207 773 207 c 0
 791 207 806 191 806 173 c 0
 806 155 791 140 773 140 c 0
 719 139 667 137 613 135 c 1
 613 131 613 113 613 95 c 0
 613 71 612 45 612 43 c 0
 612 42 612 42 612 41 c 0
 612 40 612 39 612 38 c 0
 612 21 601 9 584 5 c 0
 571 2 521 0 456 -0 c 0xb6
312 191 m 1
 312 191 317 192 326 192 c 0
 372 194 514 199 546 200 c 1
 546 210 545 220 545 228 c 1x96
 446 232 356 235 319 235 c 1
 317 223 314 207 312 191 c 1
300 74 m 1
 329 69 386 67 456 67 c 0
 487 67 521 67 545 68 c 1
 546 117 546 118 546 133 c 1
 527 132 390 127 331 125 c 0
 315 124 305 124 304 124 c 0
 302 104 300 86 300 74 c 1
EndSplineSet
Validated: 1
EndChar

StartChar: uni23E3
Encoding: 63 9187 63
Width: 463
VWidth: 0
Flags: W
HStem: 42 67<197.393 256.554> 179 67<199.531 257.125>
VStem: 25 67<70 231> 129 67<109.764 176.248> 261 67<118.012 176.191> 371 67<70 231>
LayerCount: 2
Fore
SplineSet
231 311 m 1
 92 231 l 1
 92 70 l 1
 231 -11 l 1
 371 70 l 1
 371 231 l 1
 231 311 l 1
231 383 m 0
 237 383 243 382 248 379 c 2
 421 280 l 2
 431 274 438 262 438 250 c 2
 438 50 l 2
 438 38 431 27 421 21 c 2
 248 -79 l 2
 243 -82 238 -83 232 -83 c 0
 226 -83 220 -82 215 -79 c 2
 42 21 l 2
 32 27 25 38 25 50 c 2
 25 250 l 2
 25 262 32 274 42 280 c 2
 215 379 l 2
 220 382 225 383 231 383 c 0
261 136 m 0
 261 162 250 179 232 179 c 0
 208 179 196 166 196 141 c 0
 196 120 204 109 219 109 c 0
 228 109 249 116 255 120 c 0
 259 123 261 126 261 136 c 0
328 136 m 0
 328 80 284 42 219 42 c 0
 166 42 129 83 129 141 c 0
 129 203 172 246 232 246 c 0
 288 246 328 200 328 136 c 0
EndSplineSet
Validated: 1
EndChar

StartChar: uni23E4
Encoding: 64 9188 64
Width: 546
VWidth: 0
Flags: W
HStem: 107 67<99.7079 516.04> 118 67<28.5645 271.017>
LayerCount: 2
Fore
SplineSet
315 174 m 0x80
 335 174 368 175 401 176 c 0
 434 177 468 178 488 178 c 0
 506 178 521 162 521 144 c 0
 521 126 507 112 489 111 c 0
 416 108 363 107 315 107 c 0x80
 236 107 164 110 56 118 c 0
 38 119 25 133 25 151 c 0
 25 169 41 185 59 185 c 0x40
 96 185 141 182 187 179 c 0
 233 176 278 174 315 174 c 0x80
EndSplineSet
Validated: 1
EndChar

StartChar: uni23E5
Encoding: 65 9189 65
Width: 602
VWidth: 0
Flags: W
HStem: 6 67<103.607 370.833> 229 63<335.138 473> 233 67<214.141 470.001>
LayerCount: 2
Fore
SplineSet
59 -1 m 0xc0
 39 -1 25 15 25 36 c 0
 25 91 81 179 180 282 c 0
 193 295 230 300 321 300 c 0xa0
 380 300 456 297 546 292 c 0
 564 291 577 277 577 259 c 0
 577 250 573 241 567 235 c 2
 522 189 453 98 401 15 c 0
 395 5 385 0 373 -0 c 0
 372 0 371 -0 370 -0 c 2
 318 4 243 6 189 6 c 0
 167 6 146 5 124 3 c 0
 102 1 81 -1 59 -1 c 0xc0
189 73 m 0
 239 73 298 71 355 68 c 1
 392 126 433 180 473 229 c 1xc0
 417 232 366 233 323 233 c 0xa0
 277 233 241 232 221 229 c 1xc0
 163 168 123 114 103 71 c 1
 128 73 156 73 189 73 c 0
EndSplineSet
Validated: 1
EndChar

StartChar: uni23E6
Encoding: 66 9190 66
Width: 657
VWidth: 0
Flags: W
HStem: -0 66<344.991 461.816> 97 67<97 255> 234 66<124.875 238.985>
VStem: 255 67<170 219.513>
LayerCount: 2
Fore
SplineSet
411 -0 m 0
 331 0 282 33 265 100 c 1
 218 98 175 97 130 97 c 0
 106 97 83 97 58 98 c 0
 40 98 25 113 25 131 c 0
 25 136 26 141 28 145 c 0
 29 239 92 300 186 300 c 0
 270 300 310 262 322 170 c 0
 322 170 324 170 328 170 c 0
 366 173 573 187 599 187 c 0
 617 187 632 171 632 153 c 0
 632 141 625 129 614 123 c 0
 612 121 610 120 607 118 c 0
 588 106 571 90 553 74 c 0
 536 59 518 43 499 30 c 0
 469 10 441 0 411 -0 c 0
255 166 m 1
 247 221 234 234 186 234 c 0
 137 234 104 208 97 164 c 1
 108 164 119 164 130 164 c 0
 171 164 212 164 255 166 c 1
334 103 m 1
 344 77 367 66 411 66 c 0
 436 66 457 78 498 114 c 1
 488 113 399 108 357 105 c 0
 344 104 334 103 334 103 c 1
EndSplineSet
Validated: 1
EndChar

StartChar: uni23E7
Encoding: 67 9191 67
Width: 626
VWidth: 0
Flags: W
HStem: 92 77<77 121> 237 64<541.806 597.668>
VStem: 43 148<113.299 165.515> 130 64<326.212 379.413> 200 66<-80.442 13.4894> 228 169<76.7507 142.719>
LayerCount: 2
Fore
SplineSet
232 155 m 1xc4
 141 314 130 335 130 349 c 0
 130 367 146 383 164 383 c 0
 177 383 188 376 194 364 c 0
 219 313 230 293 278 209 c 1
 287 212 297 214 307 214 c 0
 325 214 342 209 357 199 c 1
 417 231 466 255 553 297 c 0
 558 299 563 301 568 301 c 0
 586 301 601 285 601 267 c 0
 601 254 594 243 582 237 c 0
 498 197 452 173 395 143 c 1
 396 137 397 131 397 125 c 0xd4
 397 109 391 92 381 76 c 1
 448 -35 449 -38 449 -49 c 0
 449 -50 l 0
 449 -68 434 -84 416 -84 c 0
 404 -84 392 -77 386 -66 c 0
 381 -56 379 -52 378 -50 c 0
 376 -46 376 -46 365 -28 c 0
 358 -17 348 1 330 30 c 1
 318 24 306 21 294 21 c 0
 292 21 290 21 288 21 c 0
 279 -2 273 -25 266 -57 c 0
 263 -72 250 -84 234 -84 c 0
 216 -84 200 -68 200 -50 c 0xc8
 200 -32 216 23 235 68 c 1
 230 83 228 100 228 120 c 0
 228 133 229 144 232 155 c 1xc4
58 334 m 0
 82 334 92 319 132 227 c 1
 138 231 146 234 153 234 c 0
 171 234 185 219 186 201 c 0
 186 197 187 192 188 187 c 0
 189 179 191 170 191 160 c 0
 191 123 159 92 121 92 c 0
 110 92 101 94 92 97 c 0
 86 99 79 101 71 102 c 0
 55 105 43 119 43 135 c 0xe0
 43 153 59 169 77 169 c 0
 80 169 81 168 87 167 c 1
 77 185 70 200 64 215 c 0
 55 236 48 256 31 282 c 0
 27 288 25 293 25 300 c 0
 25 318 40 334 58 334 c 0
EndSplineSet
Validated: 1
EndChar

StartChar: uni23E8
Encoding: 68 9192 68
Width: 324
Flags: W
HStem: -100 45<164.354 219.096> 167 44<174.006 242.314>
VStem: 27 43<-99.7182 210.298> 107 44<-41.8966 144.467> 254 45<-6.21535 156.641>
LayerCount: 2
Fore
SplineSet
107 37 m 0
 107 149 143 211 207 211 c 0
 267 211 299 171 299 95 c 0
 299 -12 252 -100 195 -100 c 0
 153 -100 114 -61 109 -15 c 0
 107 -6 107 0 107 37 c 0
203 167 m 2
 170 167 151 120 151 37 c 0
 151 24 152 11 153 -9 c 0
 156 -32 177 -55 195 -55 c 0
 223 -55 254 24 254 95 c 0
 254 143 238 167 207 167 c 2
 203 167 l 2
74 189 m 0
 74 165 73 145 72 126 c 0
 71 107 71 88 71 64 c 2
 71 55 l 2
 70 38 70 24 70 -14 c 0
 70 -25 70 -35 70 -46 c 0
 70 -57 69 -67 69 -78 c 0
 69 -90 59 -100 47 -100 c 0
 35 -100 25 -89 25 -77 c 0
 25 -43 26 -11 27 47 c 2
 27 67 l 2
 27 68 27 70 27 71 c 0
 28 93 28 92 30 175 c 0
 30 179 30 184 30 189 c 0
 30 201 40 211 52 211 c 0
 64 211 74 201 74 189 c 0
EndSplineSet
Validated: 1
EndChar

StartChar: uni23E9
Encoding: 69 9193 69
Width: 350
VWidth: 0
Flags: W
HStem: 0 21G<25 45 175 195> 280 20G<25 45.1342 175 195>
LayerCount: 2
Fore
SplineSet
25 0 m 1
 25 300 l 1
 175 151 l 5
 175 300 l 1
 325 150 l 1
 175 0 l 1
 175 150 l 1
 25 0 l 1
EndSplineSet
Validated: 1
EndChar

StartChar: uni23EA
Encoding: 70 9194 70
Width: 350
VWidth: 0
Flags: W
HStem: 0 22G<155 175 304.866 325> 281 20G<155.132 175 304.866 325>
LayerCount: 2
Fore
SplineSet
25 150 m 1
 175 301 l 1
 175 151 l 5
 325 300 l 1
 325 1 l 1
 175 150 l 1
 175 0 l 1
 25 150 l 1
EndSplineSet
Validated: 1
EndChar

StartChar: uni23EB
Encoding: 71 9195 71
Width: 350
VWidth: 0
Flags: W
HStem: 0 21G<25 325>
LayerCount: 2
Fore
SplineSet
25 0 m 1
 174 150 l 5
 25 150 l 1
 175 300 l 1
 325 150 l 1
 175 150 l 1
 325 0 l 1
 25 0 l 1
EndSplineSet
Validated: 1
EndChar

StartChar: uni23EC
Encoding: 72 9196 72
Width: 350
VWidth: 0
Flags: W
HStem: 0 21G<155 195> 280 20G<25 325>
LayerCount: 2
Fore
SplineSet
25 300 m 1
 325 300 l 1
 176 150 l 5
 325 150 l 1
 175 0 l 1
 25 150 l 1
 175 150 l 1
 25 300 l 1
EndSplineSet
Validated: 1
EndChar

StartChar: uni23ED
Encoding: 73 9197 73
Width: 417
VWidth: 0
Flags: W
HStem: 0 21G<25 45.1342 175 195.134 325 392> 280 20G<25 45 175 195 325 392>
VStem: 325 67<0 149 150 300>
LayerCount: 2
Fore
SplineSet
325 300 m 1
 392 300 l 1
 392 0 l 1
 325 0 l 1
 325 149 l 5
 175 0 l 1
 175 149 l 1
 25 0 l 1
 25 300 l 1
 175 150 l 1
 175 300 l 1
 325 150 l 1
 325 300 l 1
EndSplineSet
Validated: 1
EndChar

StartChar: uni23EE
Encoding: 74 9198 74
Width: 417
VWidth: 0
Flags: W
HStem: 0 21G<25 92 222 242 372 392> 280 20G<25 92 221.866 242 371.866 392>
VStem: 25 67<0 150 151 300>
LayerCount: 2
Fore
SplineSet
25 0 m 1
 25 300 l 1
 92 300 l 1
 92 151 l 1
 242 300 l 1
 242 151 l 5
 392 300 l 1
 392 0 l 1
 242 150 l 1
 242 0 l 1
 92 150 l 1
 92 0 l 1
 25 0 l 1
EndSplineSet
Validated: 1
EndChar

StartChar: uni23EF
Encoding: 75 9199 75
Width: 383
VWidth: 0
Flags: W
HStem: 0 21G<25 45.1342 175 242 291 358> 280 20G<25 45 175 242 291 358>
VStem: 175 67<0 149 150 300> 291 67<0 300>
LayerCount: 2
Fore
SplineSet
175 300 m 1
 242 300 l 1
 242 0 l 1
 175 0 l 1
 175 149 l 1
 25 0 l 1
 25 300 l 1
 175 150 l 1
 175 300 l 1
291 0 m 1
 291 300 l 1
 358 300 l 1
 358 0 l 1
 291 0 l 1
EndSplineSet
Validated: 1
EndChar

StartChar: uni23F4
Encoding: 76 9204 76
Width: 200
VWidth: 0
Flags: W
HStem: 0 21G<155 175> 280 20G<155 175>
VStem: 25 150
LayerCount: 2
Fore
SplineSet
25 150 m 1
 175 300 l 1
 175 0 l 1
 25 150 l 1
EndSplineSet
Validated: 1
EndChar

StartChar: uni23F5
Encoding: 77 9205 77
Width: 200
VWidth: 0
Flags: W
HStem: 0 21G<25 45> 280 20G<25 45>
VStem: 25 150
LayerCount: 2
Fore
SplineSet
25 0 m 1
 25 300 l 1
 175 150 l 1
 25 0 l 1
EndSplineSet
Validated: 1
EndChar

StartChar: uni23F6
Encoding: 78 9206 78
Width: 350
VWidth: 0
Flags: W
HStem: 150 150
LayerCount: 2
Fore
SplineSet
25 150 m 1
 175 300 l 1
 325 150 l 1
 25 150 l 1
EndSplineSet
Validated: 1
EndChar

StartChar: uni23F7
Encoding: 79 9207 79
Width: 350
VWidth: 0
Flags: W
HStem: 0 150
LayerCount: 2
Fore
SplineSet
25 150 m 1
 325 150 l 1
 175 0 l 1
 25 150 l 1
EndSplineSet
Validated: 1
EndChar

StartChar: uni23F8
Encoding: 80 9208 80
Width: 233
VWidth: 0
Flags: W
HStem: 0 21G<25 92 141 208> 280 20G<25 92 141 208>
VStem: 25 67<0 300> 141 67<0 300>
LayerCount: 2
Fore
SplineSet
25 0 m 1
 25 300 l 1
 92 300 l 1
 92 0 l 1
 25 0 l 1
141 0 m 1
 141 300 l 1
 208 300 l 1
 208 0 l 1
 141 0 l 1
EndSplineSet
Validated: 1
EndChar

StartChar: uni23F9
Encoding: 81 9209 81
Width: 350
VWidth: 0
Flags: W
HStem: 0 21G<25 325> 280 20G<25 325>
VStem: 25 300<0 300>
LayerCount: 2
Fore
SplineSet
25 0 m 1
 25 300 l 1
 325 300 l 1
 325 0 l 1
 25 0 l 1
EndSplineSet
Validated: 1
EndChar

StartChar: uni23FA
Encoding: 82 9210 82
Width: 350
VWidth: 0
Flags: W
HStem: 0 21G<134 216.5> 280 20G<133.5 216.5>
VStem: 25 300<78.8745 221.569>
LayerCount: 2
Fore
SplineSet
25 150 m 0
 25 233 92 300 175 300 c 0
 258 300 325 233 325 150 c 0
 325 67 258 0 175 0 c 0
 93 0 25 68 25 150 c 0
EndSplineSet
Validated: 1
EndChar

StartChar: uni23FB
Encoding: 83 9211 83
Width: 402
VWidth: 0
Flags: W
HStem: -0 66<119.995 284.331> 235 65<256.485 291.217>
VStem: 25 67<92.0798 193.36> 168 67<137.485 377.451> 310 67<91.3766 218.508>
LayerCount: 2
Fore
SplineSet
219 -0 m 0
 96 0 25 48 25 132 c 0
 25 183 54 244 102 291 c 0
 108 297 117 300 126 300 c 0
 144 300 159 285 159 267 c 0
 159 258 155 249 149 243 c 0
 115 209 92 165 92 132 c 0
 92 89 136 66 219 66 c 0
 279 66 310 95 310 150 c 0
 310 186 292 228 274 235 c 0
 261 240 253 252 253 266 c 0
 253 284 269 300 287 300 c 0
 332 300 377 224 377 150 c 0
 377 58 316 0 219 -0 c 0
235 189 m 0
 235 186 235 182 235 178 c 0
 235 174 235 171 235 168 c 0
 235 150 220 134 202 134 c 0
 184 134 168 150 168 168 c 0
 168 175 168 182 168 189 c 0
 168 191 168 208 168 225 c 0
 168 242 169 259 169 261 c 0
 169 278 167 292 166 305 c 0
 165 318 163 332 163 349 c 0
 163 367 179 383 197 383 c 0
 214 383 228 371 230 354 c 0
 234 325 236 296 236 261 c 0
 236 249 235 237 235 225 c 0
 235 213 235 201 235 189 c 0
EndSplineSet
Validated: 1
EndChar

StartChar: uni23FC
Encoding: 84 9212 84
Width: 350
VWidth: 0
Flags: W
HStem: -0 66<126.202 226.705> 86 130<146.673 205.579> 234 66<117.792 236.141>
VStem: 25 67<102.901 208.695> 143 67<89.6521 212.515> 258 67<98.5864 211.478>
LayerCount: 2
Fore
SplineSet
258 165 m 0
 258 207 226 234 177 234 c 0
 125 234 92 204 92 157 c 0
 92 112 132 66 172 66 c 0
 224 66 258 106 258 165 c 0
25 157 m 0
 25 241 88 300 177 300 c 0
 263 300 325 244 325 165 c 0
 325 69 261 0 172 -0 c 0
 95 0 25 74 25 157 c 0
142 120 m 0
 142 126 142 130 142 135 c 0
 142 140 143 144 143 150 c 2
 143 151 l 2
 143 162 143 170 143 183 c 0
 144 201 159 216 177 216 c 0
 195 216 210 200 210 182 c 0
 210 176 210 172 210 167 c 0
 210 162 210 158 210 152 c 2
 210 151 l 2
 210 140 209 132 209 119 c 0
 208 101 194 86 176 86 c 0
 158 86 142 102 142 120 c 0
EndSplineSet
Validated: 1
EndChar

StartChar: uni23FD
Encoding: 85 9213 85
Width: 118
VWidth: 0
Flags: W
HStem: -0 21G<49 67> 280 20G<51 69>
VStem: 26 66<3.2926 296.707>
LayerCount: 2
Fore
SplineSet
25 33 m 0
 25 78 26 114 26 150 c 0
 26 186 26 222 26 267 c 0
 26 285 42 300 60 300 c 0
 78 300 93 285 93 267 c 0
 93 222 92 186 92 150 c 0
 92 114 92 78 92 33 c 0
 92 15 76 0 58 -0 c 0
 40 0 25 15 25 33 c 0
EndSplineSet
Validated: 1
EndChar

StartChar: uni23FE
Encoding: 86 9214 86
Width: 292
VWidth: 0
Flags: W
HStem: 0 21G<206.5 225.5> 280 20G<103.5 125.5>
VStem: 25 74<116.13 209.784>
LayerCount: 2
Fore
SplineSet
138 300 m 1
 113 255 99 207 99 171 c 0
 99 160 100 149 103 141 c 0
 116 104 184 46 267 0 c 1
 146 6 47 56 29 119 c 0
 27 127 25 136 25 145 c 0
 25 199 69 260 138 300 c 1
EndSplineSet
Validated: 1
EndChar

StartChar: uni23FF
Encoding: 87 9215 87
Width: 395
VWidth: 0
Flags: W
VStem: 266 67<110.128 189.335 314.181 376.988> 306 64<-80.7914 -38.5062>
LayerCount: 2
Fore
SplineSet
279 51 m 1x80
 335 14 370 -24 370 -50 c 0
 370 -68 355 -84 337 -84 c 0
 324 -84 311 -75 306 -63 c 0x40
 290 -27 210 16 142 53 c 0
 111 70 81 85 63 98 c 0
 36 117 25 133 25 152 c 0
 25 179 40 193 106 223 c 0
 214 273 256 308 272 359 c 0
 276 373 290 383 305 383 c 0
 323 383 338 367 338 349 c 0
 338 326 311 281 280 251 c 1
 316 239 333 213 333 175 c 0
 333 118 314 75 279 51 c 1x80
237 105 m 0
 252 105 266 139 266 175 c 0x80
 266 179 265 183 265 184 c 2
 265 185 250 190 246 190 c 0
 239 182 225 131 225 116 c 0
 225 111 225 108 226 108 c 0
 227 107 235 105 237 105 c 0
170 179 m 1
 166 177 135 162 118 154 c 0
 112 151 107 149 107 149 c 1
 117 142 132 134 158 120 c 1
 159 137 159 141 170 179 c 1
EndSplineSet
Validated: 1
EndChar
